{
	"asset":{
		"generator":"Khronos glTF Blender I/O v3.6.27",
		"version":"2.0"
	},
	"scene":0,
	"scenes":[
		{
			"name":"Scene",
			"nodes":[
				16
			]
		}
	],
	"nodes":[
		{
			"name":"Bone",
			"translation":[
				0,
				-3,
				0
			]
		},
		{
			"name":"Bone.001",
			"translation":[
				0,
				2,
				0
			]
		},
		{
			"name":"Bone.002",
			"translation":[
				0,
				8,
				0
			]
		},
		{
			"name":"Bone.003",
			"translation":[
				0,
				14,
				0
			]
		},
		{
			"name":"Bone.004",
			"translation":[
				0,
				20,
				0
			]
		},
		{
			"name":"Bone.005",
			"translation":[
				0,
				26,
				0
			]
		},
		{
			"name":"Bone.006",
			"translation":[
				0,
				32,
				0
			]
		},
		{
			"name":"Bone.007",
			"translation":[
				0,
				38,
				0
			]
		},
		{
			"mesh":0,
			"name":"Block_01",
			"skin":0
		},
		{
			"mesh":1,
			"name":"Block_02",
			"skin":0
		},
		{
			"mesh":2,
			"name":"Block_03",
			"skin":0
		},
		{
			"mesh":3,
			"name":"Block_04",
			"skin":0
		},
		{
			"mesh":4,
			"name":"Block_05",
			"skin":0
		},
		{
			"mesh":5,
			"name":"Block_06",
			"skin":0
		},
		{
			"mesh":6,
			"name":"Block_07",
			"skin":0
		},
		{
			"mesh":7,
			"name":"Block_08",
			"skin":0
		},
		{
			"children":[
				8,
				9,
				10,
				11,
				12,
				13,
				14,
				15,
				0,
				1,
				2,
				3,
				4,
				5,
				6,
				7
			],
			"name":"Armature"
		}
	],
	"animations":[
		{
			"channels":[
				{
					"sampler":0,
					"target":{
						"node":0,
						"path":"translation"
					}
				},
				{
					"sampler":1,
					"target":{
						"node":0,
						"path":"rotation"
					}
				},
				{
					"sampler":2,
					"target":{
						"node":0,
						"path":"scale"
					}
				},
				{
					"sampler":3,
					"target":{
						"node":1,
						"path":"translation"
					}
				},
				{
					"sampler":4,
					"target":{
						"node":1,
						"path":"rotation"
					}
				},
				{
					"sampler":5,
					"target":{
						"node":1,
						"path":"scale"
					}
				},
				{
					"sampler":6,
					"target":{
						"node":2,
						"path":"translation"
					}
				},
				{
					"sampler":7,
					"target":{
						"node":2,
						"path":"rotation"
					}
				},
				{
					"sampler":8,
					"target":{
						"node":2,
						"path":"scale"
					}
				},
				{
					"sampler":9,
					"target":{
						"node":3,
						"path":"translation"
					}
				},
				{
					"sampler":10,
					"target":{
						"node":3,
						"path":"rotation"
					}
				},
				{
					"sampler":11,
					"target":{
						"node":3,
						"path":"scale"
					}
				},
				{
					"sampler":12,
					"target":{
						"node":4,
						"path":"translation"
					}
				},
				{
					"sampler":13,
					"target":{
						"node":4,
						"path":"rotation"
					}
				},
				{
					"sampler":14,
					"target":{
						"node":4,
						"path":"scale"
					}
				},
				{
					"sampler":15,
					"target":{
						"node":5,
						"path":"translation"
					}
				},
				{
					"sampler":16,
					"target":{
						"node":5,
						"path":"rotation"
					}
				},
				{
					"sampler":17,
					"target":{
						"node":5,
						"path":"scale"
					}
				},
				{
					"sampler":18,
					"target":{
						"node":6,
						"path":"translation"
					}
				},
				{
					"sampler":19,
					"target":{
						"node":6,
						"path":"rotation"
					}
				},
				{
					"sampler":20,
					"target":{
						"node":6,
						"path":"scale"
					}
				},
				{
					"sampler":21,
					"target":{
						"node":7,
						"path":"translation"
					}
				},
				{
					"sampler":22,
					"target":{
						"node":7,
						"path":"rotation"
					}
				},
				{
					"sampler":23,
					"target":{
						"node":7,
						"path":"scale"
					}
				}
			],
			"name":"StaggerSpin",
			"samplers":[
				{
					"input":49,
					"interpolation":"STEP",
					"output":50
				},
				{
					"input":51,
					"interpolation":"LINEAR",
					"output":52
				},
				{
					"input":49,
					"interpolation":"STEP",
					"output":53
				},
				{
					"input":49,
					"interpolation":"STEP",
					"output":54
				},
				{
					"input":51,
					"interpolation":"LINEAR",
					"output":55
				},
				{
					"input":49,
					"interpolation":"STEP",
					"output":56
				},
				{
					"input":49,
					"interpolation":"STEP",
					"output":57
				},
				{
					"input":51,
					"interpolation":"LINEAR",
					"output":58
				},
				{
					"input":49,
					"interpolation":"STEP",
					"output":59
				},
				{
					"input":49,
					"interpolation":"STEP",
					"output":60
				},
				{
					"input":51,
					"interpolation":"LINEAR",
					"output":61
				},
				{
					"input":49,
					"interpolation":"STEP",
					"output":62
				},
				{
					"input":49,
					"interpolation":"STEP",
					"output":63
				},
				{
					"input":51,
					"interpolation":"LINEAR",
					"output":64
				},
				{
					"input":49,
					"interpolation":"STEP",
					"output":65
				},
				{
					"input":49,
					"interpolation":"STEP",
					"output":66
				},
				{
					"input":51,
					"interpolation":"LINEAR",
					"output":67
				},
				{
					"input":49,
					"interpolation":"STEP",
					"output":68
				},
				{
					"input":49,
					"interpolation":"STEP",
					"output":69
				},
				{
					"input":51,
					"interpolation":"LINEAR",
					"output":70
				},
				{
					"input":49,
					"interpolation":"STEP",
					"output":71
				},
				{
					"input":49,
					"interpolation":"STEP",
					"output":72
				},
				{
					"input":51,
					"interpolation":"LINEAR",
					"output":73
				},
				{
					"input":49,
					"interpolation":"STEP",
					"output":74
				}
			]
		}
	],
	"meshes":[
		{
			"name":"Plane.156",
			"primitives":[
				{
					"attributes":{
						"POSITION":0,
						"NORMAL":1,
						"TEXCOORD_0":2,
						"JOINTS_0":3,
						"WEIGHTS_0":4
					},
					"indices":5
				}
			]
		},
		{
			"name":"Plane.157",
			"primitives":[
				{
					"attributes":{
						"POSITION":7,
						"NORMAL":8,
						"TEXCOORD_0":9,
						"JOINTS_0":10,
						"WEIGHTS_0":11
					},
					"indices":12
				}
			]
		},
		{
			"name":"Plane.158",
			"primitives":[
				{
					"attributes":{
						"POSITION":13,
						"NORMAL":14,
						"TEXCOORD_0":15,
						"JOINTS_0":16,
						"WEIGHTS_0":17
					},
					"indices":18
				}
			]
		},
		{
			"name":"Plane.160",
			"primitives":[
				{
					"attributes":{
						"POSITION":19,
						"NORMAL":20,
						"TEXCOORD_0":21,
						"JOINTS_0":22,
						"WEIGHTS_0":23
					},
					"indices":24
				}
			]
		},
		{
			"name":"Plane.159",
			"primitives":[
				{
					"attributes":{
						"POSITION":25,
						"NORMAL":26,
						"TEXCOORD_0":27,
						"JOINTS_0":28,
						"WEIGHTS_0":29
					},
					"indices":30
				}
			]
		},
		{
			"name":"Plane.161",
			"primitives":[
				{
					"attributes":{
						"POSITION":31,
						"NORMAL":32,
						"TEXCOORD_0":33,
						"JOINTS_0":34,
						"WEIGHTS_0":35
					},
					"indices":36
				}
			]
		},
		{
			"name":"Plane.162",
			"primitives":[
				{
					"attributes":{
						"POSITION":37,
						"NORMAL":38,
						"TEXCOORD_0":39,
						"JOINTS_0":40,
						"WEIGHTS_0":41
					},
					"indices":42
				}
			]
		},
		{
			"name":"Plane.126",
			"primitives":[
				{
					"attributes":{
						"POSITION":43,
						"NORMAL":44,
						"TEXCOORD_0":45,
						"JOINTS_0":46,
						"WEIGHTS_0":47
					},
					"indices":48
				}
			]
		}
	],
	"skins":[
		{
			"inverseBindMatrices":6,
			"joints":[
				0,
				1,
				2,
				3,
				4,
				5,
				6,
				7
			],
			"name":"Armature"
		}
	],
	"accessors":[
		{
			"bufferView":0,
			"componentType":5126,
			"count":1064,
			"max":[
				4.500001430511475,
				2.5000007152557373,
				4.500000476837158
			],
			"min":[
				-4.500000476837158,
				-3.5000030994415283,
				-4.5
			],
			"type":"VEC3"
		},
		{
			"bufferView":1,
			"componentType":5126,
			"count":1064,
			"type":"VEC3"
		},
		{
			"bufferView":2,
			"componentType":5126,
			"count":1064,
			"type":"VEC2"
		},
		{
			"bufferView":3,
			"componentType":5121,
			"count":1064,
			"type":"VEC4"
		},
		{
			"bufferView":4,
			"componentType":5126,
			"count":1064,
			"type":"VEC4"
		},
		{
			"bufferView":5,
			"componentType":5123,
			"count":3396,
			"type":"SCALAR"
		},
		{
			"bufferView":6,
			"componentType":5126,
			"count":8,
			"type":"MAT4"
		},
		{
			"bufferView":7,
			"componentType":5126,
			"count":1144,
			"max":[
				4.500001430511475,
				8.500001907348633,
				4.500000476837158
			],
			"min":[
				-4.500000953674316,
				2.499997615814209,
				-4.499999523162842
			],
			"type":"VEC3"
		},
		{
			"bufferView":8,
			"componentType":5126,
			"count":1144,
			"type":"VEC3"
		},
		{
			"bufferView":9,
			"componentType":5126,
			"count":1144,
			"type":"VEC2"
		},
		{
			"bufferView":10,
			"componentType":5121,
			"count":1144,
			"type":"VEC4"
		},
		{
			"bufferView":11,
			"componentType":5126,
			"count":1144,
			"type":"VEC4"
		},
		{
			"bufferView":12,
			"componentType":5123,
			"count":3684,
			"type":"SCALAR"
		},
		{
			"bufferView":13,
			"componentType":5126,
			"count":1176,
			"max":[
				4.500001430511475,
				14.500001907348633,
				4.500000476837158
			],
			"min":[
				-4.500000953674316,
				8.499998092651367,
				-4.499999523162842
			],
			"type":"VEC3"
		},
		{
			"bufferView":14,
			"componentType":5126,
			"count":1176,
			"type":"VEC3"
		},
		{
			"bufferView":15,
			"componentType":5126,
			"count":1176,
			"type":"VEC2"
		},
		{
			"bufferView":16,
			"componentType":5121,
			"count":1176,
			"type":"VEC4"
		},
		{
			"bufferView":17,
			"componentType":5126,
			"count":1176,
			"type":"VEC4"
		},
		{
			"bufferView":18,
			"componentType":5123,
			"count":3804,
			"type":"SCALAR"
		},
		{
			"bufferView":19,
			"componentType":5126,
			"count":808,
			"max":[
				3.5000014305114746,
				20.500003814697266,
				4.500000476837158
			],
			"min":[
				-3.500000476837158,
				14.500000953674316,
				-4.5
			],
			"type":"VEC3"
		},
		{
			"bufferView":20,
			"componentType":5126,
			"count":808,
			"type":"VEC3"
		},
		{
			"bufferView":21,
			"componentType":5126,
			"count":808,
			"type":"VEC2"
		},
		{
			"bufferView":22,
			"componentType":5121,
			"count":808,
			"type":"VEC4"
		},
		{
			"bufferView":23,
			"componentType":5126,
			"count":808,
			"type":"VEC4"
		},
		{
			"bufferView":24,
			"componentType":5123,
			"count":2652,
			"type":"SCALAR"
		},
		{
			"bufferView":25,
			"componentType":5126,
			"count":1064,
			"max":[
				4.500000953674316,
				26.500003814697266,
				4.500000476837158
			],
			"min":[
				-4.500000953674316,
				20.5,
				-4.499999523162842
			],
			"type":"VEC3"
		},
		{
			"bufferView":26,
			"componentType":5126,
			"count":1064,
			"type":"VEC3"
		},
		{
			"bufferView":27,
			"componentType":5126,
			"count":1064,
			"type":"VEC2"
		},
		{
			"bufferView":28,
			"componentType":5121,
			"count":1064,
			"type":"VEC4"
		},
		{
			"bufferView":29,
			"componentType":5126,
			"count":1064,
			"type":"VEC4"
		},
		{
			"bufferView":30,
			"componentType":5123,
			"count":3396,
			"type":"SCALAR"
		},
		{
			"bufferView":31,
			"componentType":5126,
			"count":1160,
			"max":[
				4.500000953674316,
				32.500003814697266,
				4.500000476837158
			],
			"min":[
				-4.500000953674316,
				26.5,
				-4.499999523162842
			],
			"type":"VEC3"
		},
		{
			"bufferView":32,
			"componentType":5126,
			"count":1160,
			"type":"VEC3"
		},
		{
			"bufferView":33,
			"componentType":5126,
			"count":1160,
			"type":"VEC2"
		},
		{
			"bufferView":34,
			"componentType":5121,
			"count":1160,
			"type":"VEC4"
		},
		{
			"bufferView":35,
			"componentType":5126,
			"count":1160,
			"type":"VEC4"
		},
		{
			"bufferView":36,
			"componentType":5123,
			"count":3876,
			"type":"SCALAR"
		},
		{
			"bufferView":37,
			"componentType":5126,
			"count":1128,
			"max":[
				4.500000953674316,
				38.500003814697266,
				4.500000476837158
			],
			"min":[
				-4.500000476837158,
				32.5,
				-4.499999523162842
			],
			"type":"VEC3"
		},
		{
			"bufferView":38,
			"componentType":5126,
			"count":1128,
			"type":"VEC3"
		},
		{
			"bufferView":39,
			"componentType":5126,
			"count":1128,
			"type":"VEC2"
		},
		{
			"bufferView":40,
			"componentType":5121,
			"count":1128,
			"type":"VEC4"
		},
		{
			"bufferView":41,
			"componentType":5126,
			"count":1128,
			"type":"VEC4"
		},
		{
			"bufferView":42,
			"componentType":5123,
			"count":3540,
			"type":"SCALAR"
		},
		{
			"bufferView":43,
			"componentType":5126,
			"count":1028,
			"max":[
				4.500001907348633,
				44.500003814697266,
				4.500000476837158
			],
			"min":[
				-4.500000476837158,
				38.5,
				-4.499999523162842
			],
			"type":"VEC3"
		},
		{
			"bufferView":44,
			"componentType":5126,
			"count":1028,
			"type":"VEC3"
		},
		{
			"bufferView":45,
			"componentType":5126,
			"count":1028,
			"type":"VEC2"
		},
		{
			"bufferView":46,
			"componentType":5121,
			"count":1028,
			"type":"VEC4"
		},
		{
			"bufferView":47,
			"componentType":5126,
			"count":1028,
			"type":"VEC4"
		},
		{
			"bufferView":48,
			"componentType":5123,
			"count":3276,
			"type":"SCALAR"
		},
		{
			"bufferView":49,
			"componentType":5126,
			"count":2,
			"max":[
				4.125
			],
			"min":[
				0.041666666666666664
			],
			"type":"SCALAR"
		},
		{
			"bufferView":50,
			"componentType":5126,
			"count":2,
			"type":"VEC3"
		},
		{
			"bufferView":51,
			"componentType":5126,
			"count":99,
			"max":[
				4.125
			],
			"min":[
				0.041666666666666664
			],
			"type":"SCALAR"
		},
		{
			"bufferView":52,
			"componentType":5126,
			"count":99,
			"type":"VEC4"
		},
		{
			"bufferView":53,
			"componentType":5126,
			"count":2,
			"type":"VEC3"
		},
		{
			"bufferView":54,
			"componentType":5126,
			"count":2,
			"type":"VEC3"
		},
		{
			"bufferView":55,
			"componentType":5126,
			"count":99,
			"type":"VEC4"
		},
		{
			"bufferView":56,
			"componentType":5126,
			"count":2,
			"type":"VEC3"
		},
		{
			"bufferView":57,
			"componentType":5126,
			"count":2,
			"type":"VEC3"
		},
		{
			"bufferView":58,
			"componentType":5126,
			"count":99,
			"type":"VEC4"
		},
		{
			"bufferView":59,
			"componentType":5126,
			"count":2,
			"type":"VEC3"
		},
		{
			"bufferView":60,
			"componentType":5126,
			"count":2,
			"type":"VEC3"
		},
		{
			"bufferView":61,
			"componentType":5126,
			"count":99,
			"type":"VEC4"
		},
		{
			"bufferView":62,
			"componentType":5126,
			"count":2,
			"type":"VEC3"
		},
		{
			"bufferView":63,
			"componentType":5126,
			"count":2,
			"type":"VEC3"
		},
		{
			"bufferView":64,
			"componentType":5126,
			"count":99,
			"type":"VEC4"
		},
		{
			"bufferView":65,
			"componentType":5126,
			"count":2,
			"type":"VEC3"
		},
		{
			"bufferView":66,
			"componentType":5126,
			"count":2,
			"type":"VEC3"
		},
		{
			"bufferView":67,
			"componentType":5126,
			"count":99,
			"type":"VEC4"
		},
		{
			"bufferView":68,
			"componentType":5126,
			"count":2,
			"type":"VEC3"
		},
		{
			"bufferView":69,
			"componentType":5126,
			"count":2,
			"type":"VEC3"
		},
		{
			"bufferView":70,
			"componentType":5126,
			"count":99,
			"type":"VEC4"
		},
		{
			"bufferView":71,
			"componentType":5126,
			"count":2,
			"type":"VEC3"
		},
		{
			"bufferView":72,
			"componentType":5126,
			"count":2,
			"type":"VEC3"
		},
		{
			"bufferView":73,
			"componentType":5126,
			"count":99,
			"type":"VEC4"
		},
		{
			"bufferView":74,
			"componentType":5126,
			"count":2,
			"type":"VEC3"
		}
	],
	"bufferViews":[
		{
			"buffer":0,
			"byteLength":12768,
			"byteOffset":0,
			"target":34962
		},
		{
			"buffer":0,
			"byteLength":12768,
			"byteOffset":12768,
			"target":34962
		},
		{
			"buffer":0,
			"byteLength":8512,
			"byteOffset":25536,
			"target":34962
		},
		{
			"buffer":0,
			"byteLength":4256,
			"byteOffset":34048,
			"target":34962
		},
		{
			"buffer":0,
			"byteLength":17024,
			"byteOffset":38304,
			"target":34962
		},
		{
			"buffer":0,
			"byteLength":6792,
			"byteOffset":55328,
			"target":34963
		},
		{
			"buffer":0,
			"byteLength":512,
			"byteOffset":62120
		},
		{
			"buffer":0,
			"byteLength":13728,
			"byteOffset":62632,
			"target":34962
		},
		{
			"buffer":0,
			"byteLength":13728,
			"byteOffset":76360,
			"target":34962
		},
		{
			"buffer":0,
			"byteLength":9152,
			"byteOffset":90088,
			"target":34962
		},
		{
			"buffer":0,
			"byteLength":4576,
			"byteOffset":99240,
			"target":34962
		},
		{
			"buffer":0,
			"byteLength":18304,
			"byteOffset":103816,
			"target":34962
		},
		{
			"buffer":0,
			"byteLength":7368,
			"byteOffset":122120,
			"target":34963
		},
		{
			"buffer":0,
			"byteLength":14112,
			"byteOffset":129488,
			"target":34962
		},
		{
			"buffer":0,
			"byteLength":14112,
			"byteOffset":143600,
			"target":34962
		},
		{
			"buffer":0,
			"byteLength":9408,
			"byteOffset":157712,
			"target":34962
		},
		{
			"buffer":0,
			"byteLength":4704,
			"byteOffset":167120,
			"target":34962
		},
		{
			"buffer":0,
			"byteLength":18816,
			"byteOffset":171824,
			"target":34962
		},
		{
			"buffer":0,
			"byteLength":7608,
			"byteOffset":190640,
			"target":34963
		},
		{
			"buffer":0,
			"byteLength":9696,
			"byteOffset":198248,
			"target":34962
		},
		{
			"buffer":0,
			"byteLength":9696,
			"byteOffset":207944,
			"target":34962
		},
		{
			"buffer":0,
			"byteLength":6464,
			"byteOffset":217640,
			"target":34962
		},
		{
			"buffer":0,
			"byteLength":3232,
			"byteOffset":224104,
			"target":34962
		},
		{
			"buffer":0,
			"byteLength":12928,
			"byteOffset":227336,
			"target":34962
		},
		{
			"buffer":0,
			"byteLength":5304,
			"byteOffset":240264,
			"target":34963
		},
		{
			"buffer":0,
			"byteLength":12768,
			"byteOffset":245568,
			"target":34962
		},
		{
			"buffer":0,
			"byteLength":12768,
			"byteOffset":258336,
			"target":34962
		},
		{
			"buffer":0,
			"byteLength":8512,
			"byteOffset":271104,
			"target":34962
		},
		{
			"buffer":0,
			"byteLength":4256,
			"byteOffset":279616,
			"target":34962
		},
		{
			"buffer":0,
			"byteLength":17024,
			"byteOffset":283872,
			"target":34962
		},
		{
			"buffer":0,
			"byteLength":6792,
			"byteOffset":300896,
			"target":34963
		},
		{
			"buffer":0,
			"byteLength":13920,
			"byteOffset":307688,
			"target":34962
		},
		{
			"buffer":0,
			"byteLength":13920,
			"byteOffset":321608,
			"target":34962
		},
		{
			"buffer":0,
			"byteLength":9280,
			"byteOffset":335528,
			"target":34962
		},
		{
			"buffer":0,
			"byteLength":4640,
			"byteOffset":344808,
			"target":34962
		},
		{
			"buffer":0,
			"byteLength":18560,
			"byteOffset":349448,
			"target":34962
		},
		{
			"buffer":0,
			"byteLength":7752,
			"byteOffset":368008,
			"target":34963
		},
		{
			"buffer":0,
			"byteLength":13536,
			"byteOffset":375760,
			"target":34962
		},
		{
			"buffer":0,
			"byteLength":13536,
			"byteOffset":389296,
			"target":34962
		},
		{
			"buffer":0,
			"byteLength":9024,
			"byteOffset":402832,
			"target":34962
		},
		{
			"buffer":0,
			"byteLength":4512,
			"byteOffset":411856,
			"target":34962
		},
		{
			"buffer":0,
			"byteLength":18048,
			"byteOffset":416368,
			"target":34962
		},
		{
			"buffer":0,
			"byteLength":7080,
			"byteOffset":434416,
			"target":34963
		},
		{
			"buffer":0,
			"byteLength":12336,
			"byteOffset":441496,
			"target":34962
		},
		{
			"buffer":0,
			"byteLength":12336,
			"byteOffset":453832,
			"target":34962
		},
		{
			"buffer":0,
			"byteLength":8224,
			"byteOffset":466168,
			"target":34962
		},
		{
			"buffer":0,
			"byteLength":4112,
			"byteOffset":474392,
			"target":34962
		},
		{
			"buffer":0,
			"byteLength":16448,
			"byteOffset":478504,
			"target":34962
		},
		{
			"buffer":0,
			"byteLength":6552,
			"byteOffset":494952,
			"target":34963
		},
		{
			"buffer":0,
			"byteLength":8,
			"byteOffset":501504
		},
		{
			"buffer":0,
			"byteLength":24,
			"byteOffset":501512
		},
		{
			"buffer":0,
			"byteLength":396,
			"byteOffset":501536
		},
		{
			"buffer":0,
			"byteLength":1584,
			"byteOffset":501932
		},
		{
			"buffer":0,
			"byteLength":24,
			"byteOffset":503516
		},
		{
			"buffer":0,
			"byteLength":24,
			"byteOffset":503540
		},
		{
			"buffer":0,
			"byteLength":1584,
			"byteOffset":503564
		},
		{
			"buffer":0,
			"byteLength":24,
			"byteOffset":505148
		},
		{
			"buffer":0,
			"byteLength":24,
			"byteOffset":505172
		},
		{
			"buffer":0,
			"byteLength":1584,
			"byteOffset":505196
		},
		{
			"buffer":0,
			"byteLength":24,
			"byteOffset":506780
		},
		{
			"buffer":0,
			"byteLength":24,
			"byteOffset":506804
		},
		{
			"buffer":0,
			"byteLength":1584,
			"byteOffset":506828
		},
		{
			"buffer":0,
			"byteLength":24,
			"byteOffset":508412
		},
		{
			"buffer":0,
			"byteLength":24,
			"byteOffset":508436
		},
		{
			"buffer":0,
			"byteLength":1584,
			"byteOffset":508460
		},
		{
			"buffer":0,
			"byteLength":24,
			"byteOffset":510044
		},
		{
			"buffer":0,
			"byteLength":24,
			"byteOffset":510068
		},
		{
			"buffer":0,
			"byteLength":1584,
			"byteOffset":510092
		},
		{
			"buffer":0,
			"byteLength":24,
			"byteOffset":511676
		},
		{
			"buffer":0,
			"byteLength":24,
			"byteOffset":511700
		},
		{
			"buffer":0,
			"byteLength":1584,
			"byteOffset":511724
		},
		{
			"buffer":0,
			"byteLength":24,
			"byteOffset":513308
		},
		{
			"buffer":0,
			"byteLength":24,
			"byteOffset":513332
		},
		{
			"buffer":0,
			"byteLength":1584,
			"byteOffset":513356
		},
		{
			"buffer":0,
			"byteLength":24,
			"byteOffset":514940
		}
	],
	"buffers":[
		{
			"byteLength":514964,
			"uri":"data:application/octet-stream;base64,"
		}
	]
}
